<svg width="67" height="63" viewBox="0 0 67 63" fill="none" xmlns="http://www.w3.org/2000/svg">
<path d="M23.181 40.5077C23.1737 43.286 20.6527 45.6504 17.7883 45.6645C17.0584 45.6682 16.4409 45.3708 15.8629 44.9821C13.6047 43.4632 13.4042 43.4592 11.153 44.9833C10.3409 45.533 9.48279 45.7507 8.46756 45.5943C5.91307 45.2013 3.88261 43.0818 3.83554 40.6794C3.8183 39.7973 4.14975 39.0302 4.78316 38.372C5.30718 37.8272 5.91009 37.3609 6.53388 36.9231C7.59518 36.1784 8.45264 35.2721 9.1815 34.2484C9.71712 33.496 10.2282 32.7249 10.9392 32.0934C12.4562 30.7456 14.558 30.7453 16.0743 32.0927C16.5984 32.5581 17.0312 33.0928 17.4048 33.6625C18.3749 35.1409 19.6275 36.3663 21.114 37.4124C22.0666 38.0826 22.9155 38.8586 23.1173 40.0359C23.1505 40.2293 23.17 40.4243 23.181 40.5077Z" fill="#298263"/>
<path d="M0 31.1313C0.0162411 30.1864 0.200527 29.3905 0.693062 28.6758C1.71028 27.1996 3.53889 26.9215 5.01749 28.0117C6.80766 29.3319 7.38935 32.0327 6.28198 33.882C5.27337 35.5664 3.21142 35.8837 1.67515 34.5853C0.545236 33.6306 0.0742448 32.407 0 31.1313Z" fill="#298263"/>
<path d="M6.23723 24.7658C6.25082 24.092 6.49012 23.1713 7.10729 22.3582C8.52987 20.4843 11.0091 20.5521 12.2484 22.5452C13.3462 24.3112 13.2948 26.113 12.0601 27.8143C10.8669 29.4579 8.70123 29.5272 7.31941 28.0163C6.64823 27.2829 6.23855 26.1682 6.23723 24.7658Z" fill="#298263"/>
<path d="M20.7849 25.1874C20.7296 26.2826 20.3928 27.3734 19.4628 28.2444C18.2361 29.3932 16.5119 29.3751 15.2935 28.2132C13.5716 26.5711 13.608 23.4469 15.368 21.8435C16.6932 20.6361 18.5231 20.7431 19.6931 22.0912C20.4555 22.9693 20.764 23.9844 20.7849 25.1874Z" fill="#298263"/>
<path d="M26.9933 30.7906C26.9194 32.3723 26.3152 33.7281 24.9274 34.711C23.0103 36.0692 20.6371 35.2708 20.1194 33.0907C19.6987 31.3198 20.2705 29.7823 21.6102 28.5176C22.5131 27.6656 23.639 27.1968 24.9552 27.6337C26.3221 28.0874 26.8097 29.1498 26.9903 30.3801C27.0102 30.5147 26.9933 30.6539 26.9933 30.7906Z" fill="#298263"/>
<path d="M56.181 19.5077C56.1737 22.286 53.6527 24.6504 50.7883 24.6645C50.0584 24.6682 49.4409 24.3708 48.8629 23.9821C46.6047 22.4632 46.4042 22.4592 44.153 23.9833C43.3409 24.533 42.4828 24.7507 41.4676 24.5943C38.9131 24.2013 36.8826 22.0818 36.8355 19.6794C36.8183 18.7973 37.1498 18.0302 37.7832 17.372C38.3072 16.8272 38.9101 16.3609 39.5339 15.9231C40.5952 15.1784 41.4526 14.2721 42.1815 13.2484C42.7171 12.496 43.2282 11.7249 43.9392 11.0934C45.4562 9.74559 47.558 9.74528 49.0743 11.0927C49.5984 11.5581 50.0312 12.0928 50.4048 12.6625C51.3749 14.1409 52.6275 15.3663 54.114 16.4124C55.0666 17.0826 55.9155 17.8586 56.1173 19.0359C56.1505 19.2293 56.17 19.4243 56.181 19.5077Z" fill="#298263"/>
<path d="M33 10.1313C33.0162 9.18638 33.2005 8.39047 33.6931 7.67581C34.7103 6.19959 36.5389 5.92151 38.0175 7.01174C39.8077 8.33191 40.3894 11.0327 39.282 12.882C38.2734 14.5664 36.2114 14.8837 34.6751 13.5853C33.5452 12.6306 33.0742 11.407 33 10.1313Z" fill="#298263"/>
<path d="M39.2372 3.76584C39.2508 3.09196 39.4901 2.17127 40.1073 1.35819C41.5299 -0.515681 44.0091 -0.447925 45.2484 1.54521C46.3462 3.31117 46.2948 5.11299 45.0601 6.81426C43.8669 8.45788 41.7012 8.52717 40.3194 7.0163C39.6482 6.28294 39.2386 5.16818 39.2372 3.76584Z" fill="#298263"/>
<path d="M53.7849 4.18743C53.7296 5.28257 53.3928 6.37341 52.4628 7.24443C51.2361 8.39323 49.5119 8.37514 48.2935 7.21316C46.5716 5.57107 46.608 2.44692 48.368 0.84346C49.6932 -0.363889 51.5231 -0.25689 52.6931 1.09118C53.4555 1.96926 53.764 2.98437 53.7849 4.18743Z" fill="#298263"/>
<path d="M59.9933 9.79065C59.9194 11.3723 59.3152 12.7281 57.9274 13.711C56.0103 15.0692 53.6371 14.2708 53.1194 12.0907C52.6987 10.3198 53.2705 8.78228 54.6102 7.51759C55.5131 6.66558 56.639 6.19681 57.9552 6.6337C59.3221 7.08745 59.8097 8.14978 59.9903 9.38012C60.0102 9.51472 59.9933 9.65391 59.9933 9.79065Z" fill="#298263"/>
<path d="M63.181 57.5077C63.1737 60.286 60.6527 62.6504 57.7883 62.6645C57.0584 62.6682 56.4409 62.3708 55.8629 61.9821C53.6047 60.4632 53.4042 60.4592 51.153 61.9833C50.3409 62.533 49.4828 62.7507 48.4676 62.5943C45.9131 62.2013 43.8826 60.0818 43.8355 57.6794C43.8183 56.7973 44.1498 56.0302 44.7832 55.372C45.3072 54.8272 45.9101 54.3609 46.5339 53.9231C47.5952 53.1784 48.4526 52.2721 49.1815 51.2484C49.7171 50.496 50.2282 49.7249 50.9392 49.0934C52.4562 47.7456 54.558 47.7453 56.0743 49.0927C56.5984 49.5581 57.0312 50.0928 57.4048 50.6625C58.3749 52.1409 59.6275 53.3663 61.114 54.4124C62.0666 55.0826 62.9155 55.8586 63.1173 57.0359C63.1505 57.2293 63.17 57.4243 63.181 57.5077Z" fill="#298263"/>
<path d="M40 48.1313C40.0162 47.1864 40.2005 46.3905 40.6931 45.6758C41.7103 44.1996 43.5389 43.9215 45.0175 45.0117C46.8077 46.3319 47.3894 49.0327 46.282 50.882C45.2734 52.5664 43.2114 52.8837 41.6751 51.5853C40.5452 50.6306 40.0742 49.407 40 48.1313Z" fill="#298263"/>
<path d="M46.2372 41.7658C46.2508 41.092 46.4901 40.1713 47.1073 39.3582C48.5299 37.4843 51.0091 37.5521 52.2484 39.5452C53.3462 41.3112 53.2948 43.113 52.0601 44.8143C50.8669 46.4579 48.7012 46.5272 47.3194 45.0163C46.6482 44.2829 46.2386 43.1682 46.2372 41.7658Z" fill="#298263"/>
<path d="M60.7849 42.1874C60.7296 43.2826 60.3928 44.3734 59.4628 45.2444C58.2361 46.3932 56.5119 46.3751 55.2935 45.2132C53.5716 43.5711 53.608 40.4469 55.368 38.8435C56.6932 37.6361 58.5231 37.7431 59.6931 39.0912C60.4555 39.9693 60.764 40.9844 60.7849 42.1874Z" fill="#298263"/>
<path d="M66.9933 47.7906C66.9194 49.3723 66.3152 50.7281 64.9274 51.711C63.0103 53.0692 60.6371 52.2708 60.1194 50.0907C59.6987 48.3198 60.2705 46.7823 61.6102 45.5176C62.5131 44.6656 63.639 44.1968 64.9552 44.6337C66.3221 45.0874 66.8097 46.1498 66.9903 47.3801C67.0102 47.5147 66.9933 47.6539 66.9933 47.7906Z" fill="#298263"/>
</svg>
